:SAMPLES-PER-SECOND 30
:FULLY-SPECIFIED
:DEGREES
346
root  34.85106821 36.52921662 -14.72590739 8.680317879 -3.265740156 3.414116144
lowerback  -8.4018507 0.04929877445 -0.3569960296
upperback  -3.174700022 0.5059450269 -3.30343008
thorax  1.450479984 0.3870620131 -3.162329912
lowerneck  -14.33839989 0.6934400201 0.915907979
upperneck  15.91720009 0.06190568954 5.570139885
head  7.254600048 0.7418929935 1.691872358
lclavicle  0 -4.497500157e-015 -2.743230041e-014
lhumerus  -45.20999908 27.26779938 67.83599854
lradius  0.004719055258 -6.507048965e-006 30.11167526
lwrist  4.824992743e-007 -3.790274832e-007 -27.26029968
lhand  -4.405300586e-031 -36.72040176 -10.72439957
lfingers  90 7.125020027 -90
lthumb  94.74225044 -25.56571091 100.8814038
rclavicle  0 -4.497500157e-015 -2.743230041e-014
rhumerus  -49.80020142 -36.17129898 -55.00800323
rradius  -5.16745672e-007 2.214343908e-008 38.06940079
rwrist  -7.499573258e-005 0.03438235447 -148.4550018
rhand  -1.775242907e-031 5.986219883 -7.881830215
rfingers  -90 -7.125020027 -90
rthumb  -84.88329923 -8.341505645 -58.31643225
rfemur  -11.77021027 15.80241394 13.21356964
rtibia  -0.9394885302 -0.5125106573 20.3400116
rfoot  0.2505752444 -21.04864693 -37.16337585
rtoes  4.099939364 19.59211694 -102.066185
lfemur  -7.657174587 -17.2684269 -20.23608971
ltibia  2.945288658 -0.3240669668 13.98555374
lfoot  0.7533724904 -24.43294525 36.68299866
ltoes  -8.506763157 -18.16811184 -115.6267749
347
root  34.85163891 36.53045114 -14.72601102 8.707021713 -3.223879099 3.387595177
lowerback  -8.40351963 0.0518049188 -0.3913719654
upperback  -3.152899981 0.5115730166 -3.304929972
thorax  1.47547996 0.3897689879 -3.143840075
lowerneck  -14.36909962 0.6616489887 0.9022759795
upperneck  15.9197998 0.01946699433 5.56843996
head  7.261909962 0.7207300067 1.689139843
lclavicle  0 -4.497500157e-015 -2.743230041e-014
lhumerus  -45.1405983 27.20289993 67.91639709
lradius  0.004719055258 -6.507048965e-006 30.10210037
lwrist  4.824992743e-007 -3.790274832e-007 -27.22130013
lhand  -4.405300586e-031 -36.72040176 -10.72439957
lfingers  90 7.125020027 -90
lthumb  94.74225044 -25.56571091 100.8814038
rclavicle  0 -4.497500157e-015 -2.743230041e-014
rhumerus  -50.09019852 -37.14310074 -54.36729813
rradius  -5.16745672e-007 2.214343908e-008 36.93790054
rwrist  -7.499573258e-005 0.03438235447 -146.7969971
rhand  -1.775242907e-031 5.986219883 -7.881830215
rfingers  -90 -7.125020027 -90
rthumb  -84.88329923 -8.341505645 -58.31643225
rfemur  -11.79204559 15.77905369 13.23720551
rtibia  -0.9388171434 -0.4814008474 20.32498741
rfoot  0.2597581744 -20.98600197 -37.17554855
rtoes  4.099939364 19.59211694 -102.066185
lfemur  -7.784681797 -17.29410172 -20.14591408
ltibia  2.860103369 -0.3301193118 14.12826347
lfoot  0.7366995215 -24.46953392 36.61828995
ltoes  -8.506763157 -18.16811184 -115.6267749
348
root  34.85190925 36.53039707 -14.72611765 8.705918312 -3.17835021 3.382440805
lowerback  -8.397449493 0.08502602577 -0.3310153484
upperback  -3.152879953 0.5533440113 -3.345540047
thorax  1.475039959 0.4109050035 -3.216239929
lowerneck  -14.3927002 0.60759902 0.9058809876
upperneck  15.92949963 -0.05918236822 5.591060162
head  7.271420002 0.6868370175 1.688320041
lclavicle  0 -4.497500157e-015 -2.743230041e-014
lhumerus  -45.03409958 27.06329918 68.01200104
lradius  0.004719055258 -6.507048965e-006 30.08760071
lwrist  4.824992743e-007 -3.790274832e-007 -27.16710091
lhand  -4.405300586e-031 -36.72040176 -10.72439957
lfingers  90 7.125020027 -90
lthumb  94.74225044 -25.56571091 100.8814038
rclavicle  0 -4.497500157e-015 -2.743230041e-014
rhumerus  -50.62829971 -38.18030167 -53.63770294
rradius  -5.16745672e-007 2.214343908e-008 35.99560165
rwrist  -7.499573258e-005 0.03438235447 -145.2539978
rhand  -1.775242907e-031 5.986219883 -7.881830215
rfingers  -90 -7.125020027 -90
rthumb  -84.88329923 -8.341505645 -58.31643225
rfemur  -11.78297997 15.76921749 13.25443745
rtibia  -0.9378187656 -0.4665857255 20.32925224
rfoot  0.2518714368 -20.97277832 -37.2040329
rtoes  4.099939364 19.59211694 -102.066185
lfemur  -7.777113914 -17.30580711 -20.13936615
ltibia  2.863630295 -0.3234745264 14.11809444
lfoot  0.7286948562 -24.47500992 36.5921402
ltoes  -8.506763157 -18.16811184 -115.6267749
349
root  34.85166895 36.5305022 -14.72617022 8.705083847 -3.111034155 3.370183229
lowerback  -8.378499985 0.08960598707 -0.3326463997
upperback  -3.148799896 0.5588470101 -3.346760035
thorax  1.469089985 0.4134649932 -3.216089964
lowerneck  -14.44929981 0.5754460096 0.9005100131
upperneck  15.96920013 -0.1025939658 5.571269989
head  7.295390129 0.6654469967 1.679299951
lclavicle  0 -4.497500157e-015 -2.743230041e-014
lhumerus  -44.80709839 27.06850052 68.07720184
lradius  0.004719055258 -6.507048965e-006 29.89929962
lwrist  4.824992743e-007 -3.790274832e-007 -27.23480034
lhand  -4.405300586e-031 -36.72040176 -10.72439957
lfingers  90 7.125020027 -90
lthumb  94.74225044 -25.56571091 100.8814038
rclavicle  0 -4.497500157e-015 -2.743230041e-014
rhumerus  -51.10160446 -39.10520554 -52.90569687
rradius  -5.16745672e-007 2.214343908e-008 35.09889984
rwrist  -7.499573258e-005 0.03438235447 -143.8569946
rhand  -1.775242907e-031 5.986219883 -7.881830215
rfingers  -90 -7.125020027 -90
rthumb  -84.88329923 -8.341505645 -58.31643225
rfemur  -11.78788471 15.71901894 13.27805328
rtibia  -0.9355709553 -0.4504906535 20.35031128
rfoot  0.2351270318 -20.96814919 -37.22059631
rtoes  4.099939364 19.59211694 -102.066185
lfemur  -7.771257877 -17.29598808 -20.1198082
ltibia  2.864099979 -0.3032949269 14.10253811
lfoot  0.7094599009 -24.50174904 36.52793503
ltoes  -8.506763157 -18.16811184 -115.6267749
350
root  34.85063268 36.53071847 -14.72636546 8.704479218 -3.035540342 3.358861446
lowerback  -8.373258591 0.09495358914 -0.3413802385
upperback  -3.139549971 0.5644680262 -3.326189995
thorax  1.475839972 0.415677011 -3.189179897
lowerneck  -14.48279953 0.5318220258 0.8155930042
upperneck  15.96440029 -0.1482000202 5.573540211
head  7.300580025 0.6376850009 1.689370036
lclavicle  0 -4.497500157e-015 -2.743230041e-014
lhumerus  -44.67359924 27.02510071 68.21099854
lradius  0.004719055258 -6.507048965e-006 29.82259941
lwrist  4.824992743e-007 -3.790274832e-007 -27.22260094
lhand  -4.405300586e-031 -36.72040176 -10.72439957
lfingers  90 7.125020027 -90
lthumb  94.74225044 -25.56571091 100.8814038
rclavicle  0 -4.497500157e-015 -2.743230041e-014
rhumerus  -51.38499832 -39.58380127 -52.51810074
rradius  -5.16745672e-007 2.214343908e-008 34.3492012
rwrist  -7.499573258e-005 0.03438235447 -142.923996
rhand  -1.775242907e-031 5.986219883 -7.881830215
rfingers  -90 -7.125020027 -90
rthumb  -84.88329923 -8.341505645 -58.31643225
rfemur  -11.77419758 15.73732281 13.29434109
rtibia  -0.9260182381 -0.3972511888 20.34465027
rfoot  0.2406827658 -20.86985397 -37.26446533
rtoes  4.099939364 19.59211694 -102.066185
lfemur  -7.750252724 -17.31980705 -20.10445595
ltibia  2.880374193 -0.2578586638 14.06112099
lfoot  0.7151614428 -24.57383156 36.53282166
ltoes  -8.506763157 -18.16811184 -115.6267749
